<svg width="16" height="17" viewBox="0 0 16 17" fill="none" xmlns="http://www.w3.org/2000/svg">
<path fill-rule="evenodd" clip-rule="evenodd" d="M7.23768 5.69799C7.58308 5.23237 7.70693 4.74165 7.31629 4.30849C6.43966 3.08145 5.8501 2.32265 5.4803 1.95723C4.77726 1.26252 3.62074 1.35649 3.01186 1.95663C2.68482 2.27898 2.57411 2.38967 2.23831 2.73085C0.367877 4.60289 1.50856 8.5603 4.54093 11.5966C7.5726 14.6322 11.5284 15.7739 13.4027 13.8979C13.7126 13.5991 13.975 13.3365 14.1819 13.1177C14.7786 12.4869 14.8691 11.381 14.1779 10.6626C13.8236 10.2943 13.1002 9.73299 11.822 8.81834C11.4305 8.46816 10.9663 8.54406 10.5407 8.82335C10.336 8.95769 10.187 9.09359 9.9057 9.37527L9.39487 9.88654C9.32759 9.95388 8.41399 9.49621 7.52714 8.60821C6.63981 7.71972 6.1826 6.80578 6.24956 6.7388L6.76075 6.22718C6.85 6.13781 6.89267 6.09454 6.94739 6.03701C7.06139 5.91716 7.15578 5.80839 7.23768 5.69799ZM10.3372 10.8297L10.8481 10.3183C11.0029 10.1633 11.1032 10.0679 11.1849 10.0022C12.3046 10.8066 12.9531 11.3124 13.218 11.5877C13.3771 11.753 13.3524 12.0547 13.2141 12.2008C13.0228 12.4031 12.7742 12.6519 12.4692 12.9462C11.2571 14.1592 8.06393 13.2376 5.48342 10.6537C2.9021 8.06902 1.98125 4.87432 3.18413 3.6704C3.51857 3.33062 3.62453 3.22468 3.9469 2.90694C4.06777 2.7878 4.39701 2.76105 4.54405 2.90634C4.82876 3.18768 5.35689 3.86413 6.1338 4.94671C6.09359 4.99665 6.04335 5.0531 5.98222 5.11737C5.93735 5.16454 5.89997 5.20244 5.81825 5.28427L5.30757 5.79539C4.43881 6.66436 5.17868 8.14331 6.58465 9.55111C7.98965 10.9579 9.46868 11.6989 10.3372 10.8297Z" fill="white"/>
</svg>
