<svg width="16" height="17" viewBox="0 0 16 17" fill="none" xmlns="http://www.w3.org/2000/svg">
<path fill-rule="evenodd" clip-rule="evenodd" d="M6.66671 2.10107H9.33337C10.0698 2.10107 10.6667 2.69821 10.6667 3.43482V4.1017H13.3334C14.0698 4.1017 14.6667 4.69884 14.6667 5.43546V12.7711C14.6667 13.5077 14.0698 14.1049 13.3334 14.1049H2.66671C1.93033 14.1049 1.33337 13.5077 1.33337 12.7711V5.43546C1.33337 4.69884 1.93033 4.1017 2.66671 4.1017H5.33337V3.43482C5.33337 2.69821 5.93033 2.10107 6.66671 2.10107ZM2.66671 5.43546H5.33337H10.6667H13.3334V8.76984H8.66671H7.33337H2.66671V5.43546ZM2.66671 12.7711V10.1036H7.33337V10.7705H8.66671V10.1036H13.3334V12.7711H2.66671ZM9.33337 3.43482V4.1017H6.66671V3.43482H9.33337Z" fill="white"/>
</svg>
