<svg width="16" height="17" viewBox="0 0 16 17" fill="none" xmlns="http://www.w3.org/2000/svg">
<path fill-rule="evenodd" clip-rule="evenodd" d="M7.99996 15.4882C3.94987 15.4882 0.666626 12.2039 0.666626 8.15256C0.666626 4.10119 3.94987 0.816902 7.99996 0.816902C12.05 0.816902 15.3333 4.10119 15.3333 8.15256C15.3333 12.2039 12.05 15.4882 7.99996 15.4882ZM7.99996 14.1545C11.3137 14.1545 14 11.4673 14 8.15256C14 4.8378 11.3137 2.15066 7.99996 2.15066C4.68625 2.15066 1.99996 4.8378 1.99996 8.15256C1.99996 11.4673 4.68625 14.1545 7.99996 14.1545ZM5.80469 11.2916L9.33329 7.76191V10.1532H10.6666V5.48505H5.99995V6.8188H8.39048L4.86188 10.3485L5.80469 11.2916Z" fill="white"/>
</svg>
