<svg width="13" height="13" viewBox="0 0 13 13" fill="none" xmlns="http://www.w3.org/2000/svg">
<path fill-rule="evenodd" clip-rule="evenodd" d="M6.77788 11.7686C3.68406 11.7686 1.17603 9.26061 1.17603 6.16679C1.17603 3.07298 3.68406 0.564941 6.77788 0.564941C9.8717 0.564941 12.3797 3.07298 12.3797 6.16679C12.3797 9.26061 9.8717 11.7686 6.77788 11.7686ZM6.77791 10.7502C9.30921 10.7502 11.3612 8.69813 11.3612 6.16682C11.3612 3.63552 9.30921 1.58349 6.77791 1.58349C4.2466 1.58349 2.19457 3.63552 2.19457 6.16682C2.19457 8.69813 4.2466 10.7502 6.77791 10.7502ZM4.23158 6.67602H7.58545L6.41778 7.84369L7.13798 8.56389L9.53512 6.16676L7.13798 3.76962L6.41778 4.48982L7.58545 5.6575H4.23158V6.67602Z" fill="black"/>
</svg>
