<svg width="16" height="17" viewBox="0 0 16 17" fill="none" xmlns="http://www.w3.org/2000/svg">
<path fill-rule="evenodd" clip-rule="evenodd" d="M7.99996 15.451C3.94987 15.451 0.666626 12.1667 0.666626 8.11533C0.666626 4.06394 3.94987 0.779644 7.99996 0.779644C12.05 0.779644 15.3333 4.06394 15.3333 8.11533C15.3333 12.1667 12.05 15.451 7.99996 15.451ZM7.99996 14.1173C11.3137 14.1173 14 11.4301 14 8.11533C14 4.80056 11.3137 2.1134 7.99996 2.1134C4.68625 2.1134 1.99996 4.80056 1.99996 8.11533C1.99996 11.4301 4.68625 14.1173 7.99996 14.1173ZM5.52854 11.2544L6.47135 10.3113L4.27609 8.11533L6.47135 5.91936L5.52854 4.97625L2.39047 8.11533L5.52854 11.2544ZM9.52855 5.91936L10.4714 4.97625L13.6094 8.11533L10.4714 11.2544L9.52855 10.3113L11.7238 8.11533L9.52855 5.91936ZM6.6757 12.007L7.99089 12.2262L9.32422 4.22368L8.00903 4.00441L6.6757 12.007Z" fill="white"/>
</svg>
