<svg width="12" height="12" viewBox="0 0 12 12" fill="none" xmlns="http://www.w3.org/2000/svg">
<path fill-rule="evenodd" clip-rule="evenodd" d="M6.00005 0C2.68675 0 0 2.75416 0 6.15185C0 8.86995 1.7192 11.176 4.1032 11.9894C4.40306 12.0464 4.51315 11.856 4.51315 11.6935C4.51315 11.5468 4.50759 11.0622 4.50501 10.5481C2.83579 10.9203 2.48356 9.82226 2.48356 9.82226C2.21062 9.11119 1.81736 8.92211 1.81736 8.92211C1.27298 8.54029 1.8584 8.54813 1.8584 8.54813C2.46091 8.59142 2.77816 9.18209 2.77816 9.18209C3.3133 10.1226 4.18179 9.85069 4.52418 9.6935C4.57803 9.29598 4.73353 9.02439 4.90512 8.87087C3.57243 8.7153 2.17148 8.1878 2.17148 5.83054C2.17148 5.15889 2.40586 4.6101 2.78968 4.17927C2.72739 4.02422 2.52201 3.39861 2.84781 2.55123C2.84781 2.55123 3.35165 2.38588 4.49825 3.18182C4.97686 3.04552 5.49014 2.97716 6.00005 2.97482C6.50996 2.97716 7.02364 3.04552 7.50314 3.18182C8.64835 2.38588 9.1515 2.55123 9.1515 2.55123C9.47809 3.39861 9.27261 4.02422 9.21032 4.17927C9.59503 4.6101 9.82783 5.15889 9.82783 5.83054C9.82783 8.1934 8.42419 8.71367 7.08812 8.86598C7.30333 9.05689 7.49509 9.43127 7.49509 10.0052C7.49509 10.8283 7.48814 11.4908 7.48814 11.6935C7.48814 11.8572 7.59614 12.049 7.90028 11.9886C10.283 11.1742 12 8.86903 12 6.15185C12 2.75416 9.31365 0 6.00005 0Z" fill="black"/>
</svg>
