<svg width="16" height="17" viewBox="0 0 16 17" fill="none" xmlns="http://www.w3.org/2000/svg">
<path fill-rule="evenodd" clip-rule="evenodd" d="M12 2.79272C12 3.52934 12.597 4.12648 13.3334 4.12648C14.0698 4.12648 14.6667 3.52934 14.6667 2.79272C14.6667 2.05611 14.0698 1.45897 13.3334 1.45897C12.597 1.45897 12 2.05611 12 2.79272ZM13.3334 9.4615C12.597 9.4615 12 8.86436 12 8.12775C12 7.39113 12.597 6.79399 13.3334 6.79399C14.0698 6.79399 14.6667 7.39113 14.6667 8.12775C14.6667 8.86436 14.0698 9.4615 13.3334 9.4615ZM13.3334 14.7965C12.597 14.7965 12 14.1994 12 13.4628C12 12.7262 12.597 12.129 13.3334 12.129C14.0698 12.129 14.6667 12.7262 14.6667 13.4628C14.6667 14.1994 14.0698 14.7965 13.3334 14.7965ZM8.00004 14.7965C7.26366 14.7965 6.66671 14.1994 6.66671 13.4628C6.66671 12.7262 7.26366 12.129 8.00004 12.129C8.73642 12.129 9.33337 12.7262 9.33337 13.4628C9.33337 14.1994 8.73642 14.7965 8.00004 14.7965ZM6.66671 8.12775C6.66671 8.86436 7.26366 9.4615 8.00004 9.4615C8.73642 9.4615 9.33337 8.86436 9.33337 8.12775C9.33337 7.39113 8.73642 6.79399 8.00004 6.79399C7.26366 6.79399 6.66671 7.39113 6.66671 8.12775ZM8.00004 4.12648C7.26366 4.12648 6.66671 3.52934 6.66671 2.79272C6.66671 2.05611 7.26366 1.45897 8.00004 1.45897C8.73642 1.45897 9.33337 2.05611 9.33337 2.79272C9.33337 3.52934 8.73642 4.12648 8.00004 4.12648ZM1.33337 13.4628C1.33337 14.1994 1.93033 14.7965 2.66671 14.7965C3.40309 14.7965 4.00004 14.1994 4.00004 13.4628C4.00004 12.7262 3.40309 12.129 2.66671 12.129C1.93033 12.129 1.33337 12.7262 1.33337 13.4628ZM2.66671 9.4615C1.93033 9.4615 1.33337 8.86436 1.33337 8.12775C1.33337 7.39113 1.93033 6.79399 2.66671 6.79399C3.40309 6.79399 4.00004 7.39113 4.00004 8.12775C4.00004 8.86436 3.40309 9.4615 2.66671 9.4615ZM1.33337 2.79272C1.33337 3.52934 1.93033 4.12648 2.66671 4.12648C3.40309 4.12648 4.00004 3.52934 4.00004 2.79272C4.00004 2.05611 3.40309 1.45897 2.66671 1.45897C1.93033 1.45897 1.33337 2.05611 1.33337 2.79272Z" fill="white"/>
</svg>
