<svg width="16" height="17" viewBox="0 0 16 17" fill="none" xmlns="http://www.w3.org/2000/svg">
<path fill-rule="evenodd" clip-rule="evenodd" d="M7.99996 15.4262C3.94987 15.4262 0.666626 12.1419 0.666626 8.09057C0.666626 4.0392 3.94987 0.754913 7.99996 0.754913C12.05 0.754913 15.3333 4.0392 15.3333 8.09057C15.3333 12.1419 12.05 15.4262 7.99996 15.4262ZM12.933 11.5081C13.6057 10.5382 14 9.36045 14 8.09057C14 4.77581 11.3137 2.08867 7.99996 2.08867C4.68625 2.08867 1.99996 4.77581 1.99996 8.09057C1.99996 9.36045 2.39421 10.5382 3.06696 11.5081C3.81726 10.5167 5.58036 10.0912 7.99996 10.0912C10.4196 10.0912 12.1827 10.5167 12.933 11.5081ZM11.9764 12.5852C11.7813 11.8833 10.3795 11.425 7.99996 11.425C5.62037 11.425 4.21863 11.8833 4.0235 12.5852C5.08216 13.5231 6.47458 14.0925 7.99996 14.0925C9.52533 14.0925 10.9178 13.5231 11.9764 12.5852ZM7.99996 4.0893C6.38603 4.0893 5.33329 5.26018 5.33329 6.75681C5.33329 9.04245 6.5072 10.0912 7.99996 10.0912C9.47868 10.0912 10.6666 9.07729 10.6666 6.89019C10.6666 5.37076 9.60942 4.0893 7.99996 4.0893ZM6.66663 6.75681C6.66663 8.27013 7.2121 8.75745 7.99996 8.75745C8.7851 8.75745 9.33329 8.28956 9.33329 6.89019C9.33329 6.05687 8.8104 5.42306 7.99996 5.42306C7.15579 5.42306 6.66663 5.96711 6.66663 6.75681Z" fill="white"/>
</svg>
