<svg width="63" height="90" viewBox="0 0 63 90" fill="none" xmlns="http://www.w3.org/2000/svg">
<g clip-path="url(#clip0)">
<path d="M5.73439 82.6047L0 18.225H63L57.2585 82.5941L31.4609 89.7525L5.73439 82.6047Z" fill="#1572B6"/>
<path d="M31.5 84.2822L52.3458 78.4949L57.2478 23.4888H31.5V84.2822Z" fill="#33A9DC"/>
<path d="M31.5 46.8125H41.9372L42.6557 38.728H31.5V30.8359H51.2787L51.0901 32.955L49.1514 54.7152H31.5V46.8125Z" fill="white"/>
<path d="M31.5426 67.3191H31.507L22.724 64.9437L22.162 58.6471H14.2505L15.3568 71.0444L31.5141 75.546H31.5604V67.3191H31.5426Z" fill="#EBEBEB"/>
<path d="M41.2683 54.3697L40.3185 64.9364L31.5212 67.3118V75.5387L47.6892 71.0513L47.8066 69.7158L49.1797 54.3661H41.2683V54.3697Z" fill="white"/>
<path d="M31.5286 30.8359V38.7316H12.4827L12.3191 36.958L11.9598 32.955L11.7712 30.8359H31.5286ZM31.5001 46.8124V54.7081H22.8167L22.6637 52.9345L22.3044 48.9315L22.1159 46.8124H31.4965H31.5001Z" fill="#EBEBEB"/>
</g>
<defs>
<clipPath id="clip0">
<rect y="0.724121" width="63" height="89.0283" fill="white"/>
</clipPath>
</defs>
</svg>
