<svg width="63" height="90" viewBox="0 0 63 90" fill="none" xmlns="http://www.w3.org/2000/svg">
<g clip-path="url(#clip0)">
<path d="M62.7758 18.7284L57.0568 82.9371L31.3495 90.0796L5.71309 82.947L0 18.7284H62.7758Z" fill="#E44D26"/>
<path d="M31.3877 84.6201L52.1605 78.8485L57.0475 23.9791H31.3877V84.6201Z" fill="#F16529"/>
<path d="M20.2702 39.7317H31.3878V31.8556H11.6815L11.8695 33.9686L13.8012 55.6732H31.3878V47.797H20.9885L20.2702 39.7317ZM22.0415 59.6114H14.1523L15.2533 71.9781L31.3516 76.4567L31.3878 76.4468V68.2523L31.3534 68.2614L22.601 65.8929L22.0415 59.6114Z" fill="#EBEBEB"/>
<path d="M31.3606 55.6732H41.0379L40.1255 65.888L31.3604 68.2589V76.453L47.4715 71.9781L47.5896 70.6474L49.4367 49.912L49.6284 47.797H31.3606V55.6732ZM31.3606 39.7125V39.7317H50.3434L50.5009 37.9615L50.8592 33.9686L51.047 31.8556H31.3606V39.7127V39.7125Z" fill="white"/>
</g>
<defs>
<clipPath id="clip0">
<rect y="0.722656" width="63" height="89.0281" fill="white"/>
</clipPath>
</defs>
</svg>
