<svg width="63" height="90" viewBox="0 0 68 69" fill="none" xmlns="http://www.w3.org/2000/svg">
<path d="M20.1184 34.8124C20.1184 27.141 26.3334 20.9221 34 20.9221C41.6666 20.9221 47.8816 27.141 47.8816 34.8124C47.8816 42.4838 41.6666 48.7026 34 48.7026C26.3334 48.7026 20.1184 42.4838 20.1184 34.8124Z" fill="#4E8EF7"/>
<path d="M57.5553 6.46504C60.192 6.46504 62.3286 8.60452 62.3286 11.2421C62.3293 12.3914 61.9136 13.5021 61.1586 14.3682C65.4517 20.0645 68 27.1453 68 34.8122C68 53.5713 52.7477 68.8328 33.9998 68.8328C15.2527 68.8328 -6.66901e-07 53.571 -1.48663e-06 34.8118C-2.30635e-06 16.0527 15.2527 0.791262 33.9998 0.791261C41.662 0.791261 48.7391 3.34081 54.4315 7.63615C55.2969 6.88052 56.4067 6.46444 57.5553 6.46504ZM1.14373 34.8122C1.14373 52.9402 15.8834 67.6891 34.0006 67.6891C52.117 67.6891 66.8567 52.9402 66.8567 34.8118C66.8567 27.4414 64.4195 20.6301 60.3097 15.1403C59.5052 15.7126 58.5426 16.0197 57.5557 16.0192C54.9193 16.0192 52.7827 13.8804 52.7827 11.2429C52.7827 10.2154 53.1095 9.26687 53.661 8.48753C48.1751 4.37511 41.3679 1.93646 34.001 1.93646C15.8834 1.9357 1.1441 16.6838 1.1441 34.8122L1.14373 34.8122Z" fill="#4E8EF7"/>
</svg>
