<svg width="63" height="90" viewBox="0 0 65 65" fill="none" xmlns="http://www.w3.org/2000/svg">
<path d="M0 0H65V65H0V0Z" fill="#F7DF1E"/>
<path d="M17.0908 54.3186L22.0649 51.3083C23.0246 53.0098 23.8975 54.4494 25.9915 54.4494C27.9986 54.4494 29.2644 53.6643 29.2644 50.6103V29.8413H35.3726V50.6967C35.3726 57.0232 31.664 59.903 26.2533 59.903C21.3669 59.903 18.5305 57.3724 17.0906 54.3181L17.0908 54.3186ZM38.6904 53.6641L43.6639 50.7845C44.9733 52.9227 46.675 54.4933 49.6853 54.4933C52.2165 54.4933 53.8303 53.2279 53.8303 51.4825C53.8303 49.3883 52.1723 48.6464 49.3798 47.4251L47.8531 46.77C43.446 44.8944 40.5228 42.5382 40.5228 37.5641C40.5228 32.9826 44.0133 29.4919 49.4674 29.4919C53.3507 29.4919 56.1431 30.8448 58.15 34.3789L53.3938 37.4334C52.3465 35.5573 51.2125 34.8156 49.4672 34.8156C47.6782 34.8156 46.5437 35.95 46.5437 37.4334C46.5437 39.2658 47.6782 40.008 50.2959 41.1424L51.8229 41.7967C57.0153 44.0222 59.9385 46.2909 59.9385 51.3954C59.9385 56.8935 55.6191 59.9038 49.816 59.9038C44.144 59.9038 40.4789 57.1987 38.6901 53.6643" fill="black"/>
</svg>
