<svg width="63" height="90" viewBox="0 0 106 73" fill="none" xmlns="http://www.w3.org/2000/svg">
<g clip-path="url(#clip0)">
<path d="M32.447 58.9543H29.5773C29.4758 54.142 29.1963 49.6178 28.7393 45.3785H28.7138L24.3447 58.9543H22.1598L17.8167 45.3785H17.7917C17.4695 49.4487 17.2666 53.974 17.1823 58.9543H14.5665C14.7351 52.898 15.1588 47.2202 15.8359 41.9204H19.3927L23.5323 54.4367H23.5578L27.7229 41.9204H31.1261C31.8714 48.1282 32.3117 53.8065 32.447 58.9543ZM44.8924 46.3867C43.724 52.6859 42.1824 57.2629 40.2692 60.12C38.7787 62.3193 37.1455 63.42 35.3672 63.42C34.893 63.42 34.308 63.2779 33.6148 62.9958V61.4769C33.9536 61.5254 34.3512 61.553 34.8082 61.553C35.6389 61.553 36.3065 61.326 36.8156 60.8709C37.4245 60.3167 37.7289 59.6936 37.7289 59.0044C37.7289 58.5317 37.4916 57.5654 37.018 56.1022L33.8688 46.3862H36.6881L38.9483 53.6528C39.4563 55.3028 39.6681 56.4548 39.5833 57.1109C40.8193 53.8313 41.6828 50.2553 42.1746 46.3856H44.8924V46.3867Z" fill="#5D87A1"/>
<path d="M83.0916 58.9543H74.9399V41.9204H77.6821V56.8575H83.0916V58.9543ZM72.806 59.3658L69.6541 57.8205C69.9336 57.5924 70.2008 57.3456 70.4415 57.0597C71.7813 55.4962 72.4495 53.184 72.4495 50.1214C72.4495 44.486 70.2236 41.667 65.7701 41.667C63.5863 41.667 61.8828 42.3821 60.6645 43.8128C59.3258 45.3774 58.6576 47.6814 58.6576 50.7274C58.6576 53.7216 59.2499 55.9182 60.4349 57.3114C61.519 58.5736 63.1532 59.2055 65.3387 59.2055C66.1538 59.2055 66.9019 59.1063 67.5834 58.9063L71.687 61.2797L72.806 59.3658ZM62.5954 55.5457C61.9011 54.4362 61.554 52.6545 61.554 50.198C61.554 45.9091 62.8654 43.7621 65.4912 43.7621C66.8636 43.7621 67.8696 44.2756 68.5128 45.3003C69.206 46.4115 69.5548 48.1772 69.5548 50.5996C69.5548 54.9238 68.2422 57.0861 65.6182 57.0861C64.2451 57.0867 63.2392 56.5749 62.5954 55.5457ZM57.4626 54.2329C57.4626 55.6774 56.9291 56.8624 55.8633 57.7907C54.7964 58.7152 53.3657 59.1785 51.5729 59.1785C49.896 59.1785 48.2701 58.6463 46.6963 57.5874L47.4333 56.1248C48.7874 56.7985 50.0135 57.1335 51.1143 57.1335C52.1474 57.1335 52.9548 56.906 53.5404 56.4548C54.1254 56.0019 54.4742 55.3667 54.4742 54.5635C54.4742 53.5514 53.7638 52.6865 52.4607 51.962C51.259 51.3064 48.8556 49.9357 48.8556 49.9357C47.553 48.9926 46.9009 47.98 46.9009 46.3118C46.9009 44.9312 47.3872 43.8167 48.3605 42.9688C49.3348 42.1176 50.5919 41.6934 52.133 41.6934C53.7245 41.6934 55.1713 42.1171 56.4744 42.9556L55.8134 44.4188C54.6988 43.9483 53.5986 43.7131 52.5134 43.7131C51.6344 43.7131 50.9557 43.923 50.4838 44.3445C50.008 44.7643 49.7146 45.3014 49.7146 45.9603C49.7146 46.9674 50.44 47.8433 51.7786 48.5821C52.9964 49.2388 55.4596 50.6332 55.4596 50.6332C56.7955 51.5747 57.4626 52.5779 57.4626 54.2329Z" fill="#F8981D"/>
<path d="M86.5341 36.2152C84.876 36.1733 83.5923 36.3391 82.5148 36.792C82.2037 36.9154 81.7091 36.9154 81.6658 37.306C81.8338 37.4713 81.8532 37.7379 81.9991 37.966C82.2475 38.3775 82.6806 38.9312 83.076 39.2199C83.5102 39.5504 83.9461 39.8777 84.403 40.1658C85.2087 40.6611 86.1221 40.9492 86.9073 41.4428C87.3648 41.7299 87.8195 42.1012 88.2775 42.4102C88.5027 42.575 88.6469 42.8422 88.9391 42.9452V42.8824C88.7927 42.6973 88.7511 42.4295 88.6075 42.2235L87.9853 41.6274C87.3842 40.8253 86.6372 40.125 85.8315 39.5499C85.1683 39.0959 83.7176 38.4789 83.4486 37.7197L83.4065 37.6779C83.8623 37.6354 84.403 37.4713 84.8361 37.3451C85.5409 37.1605 86.1836 37.2024 86.9067 37.0179C87.2394 36.9352 87.5694 36.8316 87.9032 36.7297V36.5441C87.5284 36.1733 87.2611 35.6808 86.8668 35.3304C85.8121 34.4252 84.6498 33.5399 83.4486 32.7989C82.8054 32.3863 81.978 32.1207 81.2932 31.7698C81.0464 31.6458 80.6305 31.5847 80.4852 31.3786C80.1137 30.9258 79.9046 30.3297 79.6351 29.7936C79.0362 28.6626 78.4545 27.4076 77.9377 26.2116C77.5639 25.4094 77.3365 24.6084 76.8807 23.8663C74.7458 20.368 72.4272 18.2491 68.8638 16.1694C68.098 15.7364 67.1869 15.5518 66.2137 15.3249L64.6593 15.2433C64.3277 15.099 63.9955 14.7073 63.7061 14.5222C62.5238 13.7817 59.48 12.1769 58.6104 14.2957C58.0504 15.635 59.4389 16.9517 59.9158 17.631C60.2679 18.1026 60.7243 18.6392 60.9705 19.1747C61.1164 19.5245 61.1574 19.8958 61.3033 20.2655C61.6349 21.1712 61.9449 22.1788 62.3807 23.024C62.6081 23.4548 62.856 23.9076 63.1465 24.2977C63.3129 24.5258 63.6024 24.6266 63.6656 24.9985C63.3767 25.4083 63.3539 26.027 63.1881 26.5416C62.4428 28.867 62.734 31.7478 63.7904 33.4567C64.1209 33.9713 64.9094 35.104 65.9641 34.6698C66.898 34.2996 66.6911 33.1267 66.9595 32.0981C67.0211 31.8497 66.9806 31.6866 67.1048 31.5235V31.5638C67.3937 32.1395 67.6854 32.6942 67.9533 33.2716C68.596 34.2792 69.715 35.3293 70.6472 36.0273C71.1435 36.3997 71.5367 37.0366 72.1583 37.2641V37.2024H72.1173C71.9914 37.0179 71.8073 36.9352 71.642 36.792C71.2683 36.4212 70.8546 35.9683 70.5646 35.5574C69.6962 34.4043 68.9276 33.1278 68.2455 31.8106C67.9117 31.1715 67.6239 30.4729 67.3549 29.835C67.2296 29.5887 67.2296 29.2174 67.0216 29.0934C66.71 29.5457 66.2558 29.9374 66.0285 30.4917C65.6342 31.3781 65.5932 32.4684 65.4468 33.6022L65.3652 33.6418C64.7053 33.4771 64.4758 32.7989 64.2251 32.2232C63.6046 30.7611 63.5003 28.4141 64.0388 26.7272C64.183 26.2959 64.8068 24.9373 64.5578 24.5263C64.4331 24.1324 64.0183 23.9082 63.7909 23.598C63.5236 23.208 63.2308 22.7143 63.0445 22.2813C62.5476 21.1293 62.2975 19.8529 61.7624 18.7014C61.5123 18.1649 61.0781 17.6095 60.7265 17.1154C60.3317 16.56 59.8975 16.1689 59.5853 15.5105C59.4822 15.2841 59.3374 14.9139 59.5032 14.6676C59.5437 14.5023 59.628 14.4406 59.7933 14.3993C60.0617 14.174 60.8286 14.4605 61.0975 14.5844C61.8656 14.8929 62.5077 15.1811 63.1488 15.613C63.4388 15.8196 63.7499 16.2107 64.122 16.3138H64.5578C65.2194 16.457 65.9652 16.3534 66.588 16.5396C67.6854 16.89 68.6797 17.404 69.5714 17.9588C72.2847 19.6683 74.5223 22.0973 76.0328 24.9985C76.2807 25.4711 76.3861 25.9042 76.6123 26.3972C77.0487 27.4065 77.5883 28.4356 78.0214 29.4234C78.4567 30.3903 78.8715 31.3775 79.4931 32.1808C79.8031 32.6127 81.0486 32.8391 81.607 33.0656C82.0202 33.2501 82.6634 33.4143 83.0361 33.6407C83.7409 34.0721 84.4429 34.5674 85.1056 35.0417C85.4355 35.2885 86.4725 35.8031 86.5341 36.2152ZM65.4029 18.3301C65.1169 18.3272 64.8318 18.362 64.5551 18.4337V18.475H64.595C64.7619 18.8039 65.0519 19.032 65.2588 19.319C65.4257 19.649 65.5704 19.9763 65.734 20.3057L65.7739 20.265C66.0662 20.0595 66.2115 19.73 66.2115 19.2358C66.0856 19.0904 66.0662 18.9483 65.9614 18.8039C65.8394 18.5979 65.5704 18.4954 65.4029 18.3301Z" fill="#5D87A1"/>
<path d="M88.5071 58.9517H88.9363V56.8648H88.2925L87.7674 58.2889L87.1967 56.8648H86.5768V58.9517H86.9821V57.3639H87.0049L87.6027 58.9517H87.9115L88.5071 57.3639V58.9517ZM85.0496 58.9517H85.5037V57.2185H86.0982V56.8643H84.4302V57.2185H85.0485L85.0496 58.9517Z" fill="#F8981D"/>
</g>
<defs>
<clipPath id="clip0">
<rect width="106" height="73" fill="white"/>
</clipPath>
</defs>
</svg>
