<svg width="29" height="20" viewBox="0 0 29 20" fill="none" xmlns="http://www.w3.org/2000/svg">
<path d="M8.95116 15.9922H8.17463C8.14717 14.6866 8.07154 13.4592 7.9479 12.309H7.94099L6.75871 15.9922H6.1675L4.99226 12.309H4.98551C4.89833 13.4133 4.84341 14.641 4.8206 15.9922H4.11279C4.15841 14.3491 4.27305 12.8087 4.45627 11.3708H5.41872L6.53888 14.7666H6.54578L7.67285 11.3708H8.59373C8.79541 13.055 8.91455 14.5956 8.95116 15.9922ZM12.3188 12.5826C12.0027 14.2916 11.5855 15.5333 11.0678 16.3084C10.6645 16.9051 10.2226 17.2037 9.74135 17.2037C9.61306 17.2037 9.45475 17.1652 9.26718 17.0886V16.6766C9.35886 16.6897 9.46645 16.6972 9.5901 16.6972C9.81488 16.6972 9.99555 16.6356 10.1333 16.5122C10.2981 16.3618 10.3804 16.1928 10.3804 16.0058C10.3804 15.8775 10.3162 15.6154 10.1881 15.2184L9.3359 12.5824H10.0988L10.7104 14.5539C10.8479 15.0015 10.9052 15.314 10.8822 15.4921C11.2167 14.6023 11.4503 13.6321 11.5834 12.5823H12.3188V12.5826Z" fill="#5D87A1"/>
<path d="M22.6555 15.9921H20.4497V11.3708H21.1918V15.4232H22.6555V15.9921ZM19.8723 16.1037L19.0194 15.6845C19.095 15.6226 19.1674 15.5556 19.2325 15.4781C19.595 15.0539 19.7758 14.4266 19.7758 13.5957C19.7758 12.0668 19.1735 11.302 17.9684 11.302C17.3775 11.302 16.9165 11.496 16.5869 11.8842C16.2246 12.3087 16.0438 12.9337 16.0438 13.7601C16.0438 14.5725 16.2041 15.1684 16.5247 15.5464C16.8181 15.8888 17.2603 16.0602 17.8517 16.0602C18.0723 16.0602 18.2747 16.0333 18.4591 15.9791L19.5695 16.623L19.8723 16.1037ZM17.1094 15.0673C16.9215 14.7663 16.8276 14.2829 16.8276 13.6165C16.8276 12.4529 17.1824 11.8704 17.8929 11.8704C18.2643 11.8704 18.5365 12.0097 18.7106 12.2877C18.8982 12.5892 18.9925 13.0682 18.9925 13.7254C18.9925 14.8986 18.6374 15.4852 17.9273 15.4852C17.5558 15.4854 17.2836 15.3465 17.1094 15.0673ZM15.7204 14.7112C15.7204 15.1031 15.5761 15.4246 15.2877 15.6764C14.999 15.9272 14.6118 16.0529 14.1267 16.0529C13.6729 16.0529 13.233 15.9085 12.8071 15.6213L13.0066 15.2244C13.373 15.4072 13.7048 15.4981 14.0026 15.4981C14.2822 15.4981 14.5007 15.4364 14.6591 15.314C14.8174 15.1911 14.9118 15.0188 14.9118 14.8008C14.9118 14.5263 14.7196 14.2916 14.367 14.0951C14.0418 13.9172 13.3914 13.5453 13.3914 13.5453C13.039 13.2894 12.8625 13.0147 12.8625 12.5621C12.8625 12.1876 12.9941 11.8852 13.2574 11.6552C13.5211 11.4243 13.8613 11.3092 14.2783 11.3092C14.7089 11.3092 15.1004 11.4241 15.453 11.6516L15.2742 12.0486C14.9726 11.9209 14.6749 11.8571 14.3812 11.8571C14.1434 11.8571 13.9597 11.9141 13.832 12.0284C13.7033 12.1423 13.6239 12.288 13.6239 12.4668C13.6239 12.74 13.8202 12.9777 14.1824 13.1781C14.5119 13.3563 15.1784 13.7345 15.1784 13.7345C15.5399 13.99 15.7204 14.2622 15.7204 14.7112Z" fill="white"/>
<path d="M23.5868 9.82285C23.1382 9.81149 22.7908 9.85648 22.4992 9.97934C22.415 10.0128 22.2812 10.0128 22.2695 10.1188C22.3149 10.1636 22.3202 10.236 22.3597 10.2978C22.4269 10.4095 22.5441 10.5597 22.6511 10.638C22.7686 10.7277 22.8865 10.8165 23.0102 10.8947C23.2282 11.029 23.4753 11.1072 23.6878 11.2411C23.8116 11.319 23.9346 11.4197 24.0586 11.5036C24.1195 11.5483 24.1585 11.6208 24.2376 11.6487V11.6317C24.198 11.5815 24.1867 11.5088 24.1479 11.4529L23.9795 11.2912C23.8168 11.0736 23.6147 10.8836 23.3967 10.7276C23.2172 10.6044 22.8247 10.437 22.7519 10.231L22.7405 10.2197C22.8638 10.2082 23.0102 10.1636 23.1273 10.1294C23.3181 10.0793 23.492 10.0907 23.6877 10.0406C23.7777 10.0182 23.867 9.9901 23.9573 9.96245V9.91208C23.8559 9.81149 23.7835 9.67787 23.6768 9.58281C23.3914 9.33724 23.0769 9.09705 22.7519 8.89602C22.5778 8.78407 22.354 8.71202 22.1686 8.61681C22.1019 8.58318 21.9893 8.56659 21.95 8.51069C21.8495 8.38783 21.7929 8.22611 21.72 8.08068C21.5579 7.77383 21.4005 7.43335 21.2607 7.10886C21.1595 6.89124 21.098 6.67391 20.9747 6.47258C20.3969 5.52348 19.7696 4.94864 18.8053 4.38441C18.5981 4.26693 18.3515 4.21685 18.0882 4.15527L17.6676 4.13315C17.5779 4.09399 17.488 3.98772 17.4097 3.9375C17.0897 3.73662 16.2661 3.30123 16.0308 3.87607C15.8792 4.23942 16.255 4.59665 16.384 4.78094C16.4793 4.90888 16.6028 5.05446 16.6694 5.19974C16.7089 5.29465 16.72 5.39539 16.7595 5.49568C16.8492 5.7414 16.9331 6.01477 17.051 6.24405C17.1125 6.36093 17.1796 6.48379 17.2582 6.58962C17.3033 6.65149 17.3816 6.67885 17.3987 6.77974C17.3205 6.89094 17.3144 7.05879 17.2695 7.19839C17.0678 7.82928 17.1466 8.61084 17.4325 9.07448C17.5219 9.21408 17.7353 9.52138 18.0207 9.4036C18.2734 9.30316 18.2174 8.98495 18.29 8.70589C18.3067 8.63849 18.2957 8.59424 18.3293 8.55V8.56091C18.4075 8.7171 18.4864 8.86762 18.5589 9.02426C18.7328 9.29763 19.0356 9.58251 19.2879 9.77188C19.4222 9.87292 19.5286 10.0457 19.6968 10.1074V10.0907H19.6857C19.6516 10.0406 19.6018 10.0182 19.5571 9.97934C19.456 9.87875 19.344 9.75589 19.2655 9.64439C19.0305 9.33156 18.8226 8.98525 18.638 8.62787C18.5477 8.45449 18.4698 8.26497 18.397 8.09189C18.3631 8.02508 18.3631 7.92434 18.3068 7.89071C18.2225 8.01342 18.0996 8.11969 18.0381 8.27005C17.9314 8.51054 17.9203 8.80634 17.8807 9.11394L17.8586 9.1247C17.68 9.08001 17.6179 8.89601 17.5501 8.73982C17.3822 8.34314 17.354 7.70642 17.4997 7.24876C17.5387 7.13173 17.7075 6.76314 17.6401 6.65164C17.6064 6.54478 17.4941 6.48394 17.4326 6.39979C17.3603 6.29397 17.2811 6.16005 17.2306 6.04257C17.0962 5.73004 17.0285 5.38373 16.8837 5.07135C16.816 4.92577 16.6985 4.77511 16.6034 4.64104C16.4966 4.49038 16.3791 4.38426 16.2946 4.20564C16.2667 4.14421 16.2275 4.04377 16.2724 3.97696C16.2833 3.93212 16.3061 3.91538 16.3509 3.90417C16.4235 3.84304 16.631 3.92076 16.7038 3.95439C16.9116 4.03809 17.0854 4.11626 17.2588 4.23344C17.3373 4.28949 17.4215 4.39561 17.5222 4.42356H17.6401C17.8192 4.46243 18.021 4.43433 18.1895 4.48485C18.4864 4.57991 18.7555 4.71936 18.9968 4.86987C19.731 5.33366 20.3365 5.99265 20.7452 6.77974C20.8123 6.90798 20.8408 7.02546 20.902 7.15923C21.0201 7.43305 21.1661 7.71225 21.2833 7.98024C21.4011 8.24255 21.5134 8.51039 21.6816 8.72831C21.7654 8.8455 22.1025 8.90693 22.2536 8.96836C22.3654 9.01843 22.5394 9.06297 22.6403 9.1244C22.831 9.24143 23.021 9.3758 23.2003 9.50449C23.2896 9.57145 23.5702 9.71105 23.5868 9.82285ZM17.8688 4.97061C17.7914 4.96981 17.7143 4.97926 17.6394 4.99871V5.00992H17.6502C17.6954 5.09915 17.7738 5.16103 17.8298 5.2389C17.875 5.32843 17.9141 5.41721 17.9584 5.50659L17.9692 5.49553C18.0483 5.43978 18.0876 5.3504 18.0876 5.21633C18.0535 5.17687 18.0483 5.13831 18.0199 5.09915C17.9869 5.04325 17.9141 5.01545 17.8688 4.97061Z" fill="#5D87A1"/>
<path d="M24.1208 15.9914H24.2369V15.4252H24.0627L23.9206 15.8116L23.7662 15.4252H23.5984V15.9914H23.7081V15.5606H23.7143L23.876 15.9914H23.9596L24.1208 15.5606V15.9914ZM23.1852 15.9914H23.3081V15.5212H23.4689V15.425H23.0176V15.5212H23.1849L23.1852 15.9914Z" fill="white"/>
</svg>
