<svg width="63" height="90" viewBox="0 0 89 54" fill="none" xmlns="http://www.w3.org/2000/svg">
<g clip-path="url(#clip0)">
<path d="M43.9976 53.8442C43.6964 53.8442 43.4151 53.7648 43.1539 53.6256L40.4823 52.0555C40.0805 51.8367 40.2814 51.7573 40.4021 51.7176C40.9443 51.5387 41.0448 51.4988 41.6072 51.181C41.6675 51.1411 41.748 51.1611 41.8081 51.2008L43.8571 52.4132C43.9374 52.4529 44.0379 52.4529 44.098 52.4132L52.113 47.8218C52.1933 47.7821 52.2337 47.7025 52.2337 47.6033V38.4405C52.2337 38.3409 52.1933 38.2616 52.113 38.2217L44.098 33.6503C44.0177 33.6104 43.9173 33.6104 43.8571 33.6503L35.8421 38.2217C35.7618 38.2614 35.7215 38.3608 35.7215 38.4403V47.6031C35.7215 47.6827 35.7618 47.7819 35.8421 47.8218L38.0317 49.074C39.2169 49.6702 39.9601 48.9746 39.9601 48.2789V39.2353C39.9601 39.1161 40.0605 38.9968 40.2011 38.9968H41.2255C41.3462 38.9968 41.4666 39.0962 41.4666 39.2353V48.2789C41.4666 49.8491 40.6028 50.7635 39.0963 50.7635C38.6343 50.7635 38.2728 50.7635 37.2482 50.2665L35.1391 49.074C34.6168 48.7759 34.2954 48.2193 34.2954 47.623V38.4602C34.2954 37.864 34.6168 37.3073 35.1391 37.0093L43.1539 32.4179C43.6562 32.1397 44.3393 32.1397 44.8414 32.4179L52.8562 37.0093C53.3785 37.3073 53.7 37.864 53.7 38.4602V47.623C53.7 48.2193 53.3785 48.7759 52.8562 49.074L44.8414 53.6653C44.5801 53.7847 44.2789 53.8442 43.9977 53.8442H43.9976ZM46.4684 47.5436C42.9532 47.5436 42.23 45.9535 42.23 44.602C42.23 44.4826 42.3304 44.3634 42.471 44.3634H43.5156C43.636 44.3634 43.7365 44.4429 43.7365 44.5622C43.8973 45.6156 44.3592 46.1324 46.4885 46.1324C48.1758 46.1324 48.8992 45.7547 48.8992 44.8603C48.8992 44.3435 48.6981 43.966 46.0667 43.7075C43.8771 43.4888 42.5112 43.0119 42.5112 41.2827C42.5112 39.6727 43.8773 38.7185 46.1672 38.7185C48.7383 38.7185 50.0039 39.5932 50.1647 41.5011C50.1647 41.5609 50.1445 41.6204 50.1044 41.6801C50.064 41.7198 50.0039 41.7596 49.9436 41.7596H48.899C48.7986 41.7596 48.6981 41.6801 48.6781 41.5807C48.4371 40.4876 47.8143 40.1298 46.1672 40.1298C44.3191 40.1298 44.098 40.7659 44.098 41.2428C44.098 41.8192 44.3592 41.9981 46.85 42.3161C49.3209 42.6342 50.486 43.0913 50.486 44.8006C50.4659 46.5497 49.0197 47.5436 46.4684 47.5436Z" fill="#539E43"/>
<path d="M19.1294 18.0078C19.1294 17.6501 18.9285 17.312 18.6071 17.1332L10.09 12.2835C9.94921 12.2039 9.78861 12.1641 9.62802 12.1442H9.54754C9.38695 12.1442 9.22618 12.2039 9.08557 12.2835L0.568427 17.1332C0.246887 17.312 0.0461426 17.65 0.0461426 18.0078L0.066304 31.0464C0.066304 31.2253 0.166763 31.4041 0.327359 31.4838C0.488129 31.5832 0.688874 31.5832 0.829656 31.4838L5.89173 28.6216C6.21309 28.4427 6.41401 28.1048 6.41401 27.7471V21.6451C6.41401 21.2874 6.61476 20.9495 6.9363 20.7706L9.08557 19.5382C9.24634 19.4388 9.4271 19.3989 9.60785 19.3989C9.78861 19.3989 9.96937 19.4388 10.1102 19.5382L12.2594 20.7706C12.581 20.9495 12.7817 21.2872 12.7817 21.6451V27.7471C12.7817 28.1048 12.9826 28.4427 13.304 28.6216L18.3661 31.4838C18.5268 31.5832 18.7276 31.5832 18.8883 31.4838C19.0491 31.4041 19.1496 31.2253 19.1496 31.0464L19.1294 18.0078ZM60.068 0.0597182C59.9074 -0.0199061 59.7065 -0.0199061 59.5657 0.0597182C59.4051 0.159119 59.3046 0.318024 59.3046 0.496877V13.4165C59.3046 13.5356 59.2445 13.6548 59.1239 13.7344C59.0034 13.7939 58.8828 13.7939 58.7624 13.7344L56.6331 12.522C56.477 12.4341 56.3004 12.3878 56.1208 12.3878C55.9411 12.3878 55.7646 12.4341 55.6085 12.522L47.0914 17.3917C46.77 17.5705 46.5691 17.9084 46.5691 18.2661V27.9855C46.5691 28.3432 46.77 28.6813 47.0914 28.8601L55.6085 33.7298C55.7646 33.8177 55.9411 33.8639 56.1208 33.8639C56.3004 33.8639 56.477 33.8177 56.6331 33.7298L65.1502 28.8601C65.4716 28.6813 65.6725 28.3433 65.6725 27.9855V3.75665C65.6725 3.379 65.4716 3.04124 65.1502 2.86222L60.0682 0.0597182H60.068ZM59.2846 24.7855C59.2846 24.8849 59.2445 24.9644 59.164 25.0041L56.2514 26.6736C56.2107 26.6933 56.166 26.7035 56.1208 26.7035C56.0755 26.7035 56.0309 26.6933 55.9902 26.6736L53.0775 25.0041C52.9971 24.9644 52.9569 24.865 52.9569 24.7855V21.4463C52.9569 21.3469 52.9971 21.2674 53.0775 21.2277L55.9902 19.558C56.0309 19.5384 56.0755 19.5282 56.1208 19.5282C56.166 19.5282 56.2107 19.5384 56.2514 19.558L59.164 21.2277C59.2445 21.2673 59.2846 21.3668 59.2846 21.4463V24.7855ZM88.4116 21.3668C88.7331 21.188 88.9139 20.8501 88.9139 20.4922V18.127C88.9139 17.7693 88.713 17.4314 88.4116 17.2525L79.9548 12.4028C79.7987 12.3149 79.6222 12.2687 79.4426 12.2687C79.263 12.2687 79.0864 12.3149 78.9304 12.4028L70.4132 17.2723C70.0917 17.4512 69.8909 17.7891 69.8909 18.147V27.8663C69.8909 28.224 70.0917 28.5619 70.4132 28.7408L78.87 33.511C79.1916 33.6899 79.5731 33.6899 79.8745 33.511L84.9967 30.6889C85.1574 30.6093 85.2579 30.4304 85.2579 30.2516C85.2579 30.0727 85.1574 29.8939 84.9967 29.8142L76.4394 24.9446C76.2788 24.8454 76.1783 24.6863 76.1783 24.5074V21.4664C76.1783 21.2876 76.2788 21.1087 76.4394 21.0291L79.1111 19.5185C79.1893 19.4698 79.2798 19.4439 79.3723 19.4439C79.4647 19.4439 79.5552 19.4698 79.6334 19.5185L82.3049 21.0291C82.4657 21.1285 82.5662 21.2874 82.5662 21.4664V23.8515C82.5662 24.0304 82.6666 24.2092 82.8272 24.2887C82.988 24.3881 83.1888 24.3881 83.3495 24.2887L88.4116 21.3668Z" fill="#333333"/>
<path d="M79.3119 20.9096C79.3416 20.8902 79.3765 20.8799 79.4122 20.8799C79.4479 20.8799 79.4828 20.8902 79.5126 20.9096L81.1398 21.8438C81.2001 21.8834 81.2402 21.943 81.2402 22.0227V23.891C81.2402 23.9705 81.2001 24.0301 81.1398 24.0699L79.5126 25.004C79.4828 25.0234 79.4479 25.0338 79.4122 25.0338C79.3765 25.0338 79.3416 25.0234 79.3119 25.004L77.6847 24.0699C77.6244 24.0301 77.5842 23.9705 77.5842 23.891V22.0227C77.5842 21.943 77.6244 21.8834 77.6847 21.8438L79.3119 20.9096Z" fill="#539E43"/>
<mask id="mask0" mask-type="alpha" maskUnits="userSpaceOnUse" x="23" y="12" width="20" height="22">
<path d="M33.3715 12.4425C33.2154 12.3546 33.0389 12.3083 32.8593 12.3083C32.6797 12.3083 32.5032 12.3546 32.3471 12.4425L23.8902 17.2721C23.5687 17.4509 23.3879 17.7888 23.3879 18.1465V27.8263C23.3879 28.184 23.5889 28.5219 23.8902 28.7008L32.3471 33.5307C32.5032 33.6186 32.6797 33.6648 32.8593 33.6648C33.0389 33.6648 33.2154 33.6186 33.3715 33.5307L41.8285 28.7008C42.1498 28.5219 42.3308 28.184 42.3308 27.8263V18.1467C42.3308 17.789 42.1297 17.4511 41.8285 17.2722L33.3715 12.4425Z" fill="white"/>
</mask>
<g mask="url(#mask0)">
<path d="M33.3715 12.4425C33.2154 12.3546 33.0389 12.3083 32.8593 12.3083C32.6797 12.3083 32.5032 12.3546 32.3471 12.4425L23.8902 17.2721C23.5687 17.4509 23.3879 17.7888 23.3879 18.1465V27.8263C23.3879 28.184 23.5889 28.5219 23.8902 28.7008L32.3471 33.5307C32.5032 33.6186 32.6797 33.6648 32.8593 33.6648C33.0389 33.6648 33.2154 33.6186 33.3715 33.5307L41.8285 28.7008C42.1498 28.5219 42.3308 28.184 42.3308 27.8263V18.1467C42.3308 17.789 42.1297 17.4511 41.8285 17.2722L33.3715 12.4425Z" fill="url(#paint0_linear)"/>
<path d="M41.8484 17.2722L33.3514 12.4424C33.2679 12.4007 33.1804 12.3674 33.0902 12.343L23.5686 28.4825C23.6475 28.5778 23.7427 28.6585 23.85 28.721L32.347 33.5509C32.588 33.69 32.8693 33.7298 33.1303 33.6502L42.0695 17.4711C42.0092 17.3917 41.9287 17.3318 41.8484 17.2723V17.2722Z" fill="url(#paint1_linear)"/>
<path fill-rule="evenodd" clip-rule="evenodd" d="M41.8687 28.7008C42.1098 28.5617 42.2905 28.3232 42.371 28.0649L33.05 12.323C32.8089 12.2833 32.5477 12.3031 32.327 12.4422L23.8901 17.2523L32.9897 33.6699C33.122 33.6484 33.2506 33.6083 33.3714 33.5507L41.8685 28.701L41.8687 28.7008Z" fill="url(#paint2_linear)"/>
<path fill-rule="evenodd" clip-rule="evenodd" d="M41.8687 28.7011L33.3917 33.531C33.272 33.5914 33.143 33.6316 33.01 33.6502L33.1708 33.9484L42.5717 28.5621V28.4428L42.3307 28.0452C42.2905 28.3234 42.1097 28.562 41.8687 28.7011Z" fill="url(#paint3_linear)"/>
<path fill-rule="evenodd" clip-rule="evenodd" d="M41.8687 28.7011L33.3917 33.531C33.272 33.5914 33.143 33.6316 33.01 33.6502L33.1708 33.9484L42.5717 28.5621V28.4428L42.3307 28.0452C42.2905 28.3234 42.1097 28.562 41.8687 28.7011Z" fill="url(#paint4_linear)"/>
</g>
</g>
<defs>
<linearGradient id="paint0_linear" x1="36.3047" y1="16.043" x2="27.1742" y2="30.5423" gradientUnits="userSpaceOnUse">
<stop stop-color="#41873F"/>
<stop offset="0.3288" stop-color="#418B3D"/>
<stop offset="0.6352" stop-color="#419637"/>
<stop offset="0.9319" stop-color="#3FA92D"/>
<stop offset="1" stop-color="#3FAE2A"/>
</linearGradient>
<linearGradient id="paint1_linear" x1="31.5752" y1="24.1204" x2="54.6776" y2="11.4351" gradientUnits="userSpaceOnUse">
<stop offset="0.1376" stop-color="#41873F"/>
<stop offset="0.4032" stop-color="#54A044"/>
<stop offset="0.7136" stop-color="#66B848"/>
<stop offset="0.9081" stop-color="#6CC04A"/>
</linearGradient>
<linearGradient id="paint2_linear" x1="23.079" y1="22.9868" x2="42.648" y2="22.9868" gradientUnits="userSpaceOnUse">
<stop offset="0.09192" stop-color="#6CC04A"/>
<stop offset="0.2864" stop-color="#66B848"/>
<stop offset="0.5968" stop-color="#54A044"/>
<stop offset="0.8624" stop-color="#41873F"/>
</linearGradient>
<linearGradient id="paint3_linear" x1="23.0791" y1="31.013" x2="42.6479" y2="31.013" gradientUnits="userSpaceOnUse">
<stop offset="0.09192" stop-color="#6CC04A"/>
<stop offset="0.2864" stop-color="#66B848"/>
<stop offset="0.5968" stop-color="#54A044"/>
<stop offset="0.8624" stop-color="#41873F"/>
</linearGradient>
<linearGradient id="paint4_linear" x1="45.4988" y1="15.5853" x2="40.6416" y2="41.3081" gradientUnits="userSpaceOnUse">
<stop stop-color="#41873F"/>
<stop offset="0.3288" stop-color="#418B3D"/>
<stop offset="0.6352" stop-color="#419637"/>
<stop offset="0.9319" stop-color="#3FA92D"/>
<stop offset="1" stop-color="#3FAE2A"/>
</linearGradient>
<clipPath id="clip0">
<rect width="89" height="54" fill="white"/>
</clipPath>
</defs>
</svg>
