<svg width="63" height="90" viewBox="0 0 87 46" fill="none" xmlns="http://www.w3.org/2000/svg">
<path d="M43.5 45.9597C67.5244 45.9597 87 35.8354 87 23.3464C87 10.8575 67.5244 0.733154 43.5 0.733154C19.4756 0.733154 0 10.8575 0 23.3464C0 35.8354 19.4756 45.9597 43.5 45.9597Z" fill="#8993BE"/>
<path fill-rule="evenodd" clip-rule="evenodd" d="M12.2158 36.7356L16.9832 12.6345H28.0067C32.7737 12.9322 35.1573 15.3123 35.1573 19.4782C35.1573 26.6192 29.4965 30.7848 24.4312 30.4872H19.0688L17.8769 36.7356H12.2158ZM20.2603 26.0243L21.7501 17.0978H25.6233C27.709 17.0978 29.1985 17.9904 29.1985 19.7755C28.9008 24.8341 26.5171 25.7266 23.8358 26.0243H20.2606H20.2603ZM34.0498 30.4872L38.8168 6.38647H44.4779L43.286 12.6345H48.6488C53.4161 12.9322 55.2037 15.3123 54.6079 18.288L52.5223 30.4872H46.5635L48.6491 19.4782C48.9468 17.9904 48.9468 17.0978 46.8615 17.0978H42.3923L39.7109 30.4872H34.0498ZM52.1407 36.7356L56.9077 12.6345H67.9315C72.6989 12.9322 75.0825 15.3123 75.0825 19.4782C75.0825 26.6192 69.4214 30.7848 64.3564 30.4872H58.9933L57.8015 36.7356H52.1407ZM60.1848 26.0243L61.6747 17.0978H65.5482C67.6338 17.0978 69.1234 17.9904 69.1234 19.7755C68.8257 24.8341 66.442 25.7266 63.7606 26.0243H60.1851H60.1848Z" fill="#232531"/>
</svg>
