<svg width="63" height="90" viewBox="0 0 68 70" fill="none" xmlns="http://www.w3.org/2000/svg">
<path d="M67.7364 41.9125C67.3287 40.6799 66.2606 39.8214 64.8793 39.6154C64.228 39.5184 63.4821 39.5598 62.5995 39.7414C61.061 40.0582 59.9196 40.1788 59.0866 40.2022C62.2308 34.9036 64.7874 28.8614 66.2592 23.1737C68.6392 13.9768 67.3674 9.78702 65.8813 7.8919C61.9482 2.87574 56.2099 0.181008 49.2871 0.0985539C45.5942 0.0534827 42.3522 0.781251 40.661 1.30461C39.0863 1.02729 37.3932 0.872454 35.6168 0.84382C32.2866 0.790795 29.3443 1.51538 26.8301 3.00459C25.4383 2.53479 23.2044 1.87251 20.6246 1.4499C14.5572 0.455677 9.66705 1.23037 6.09015 3.75251C1.75887 6.80622 -0.24899 12.1119 0.122353 19.5221C0.240291 21.8749 1.55885 29.0332 3.63498 35.822C4.82817 39.7241 6.10051 42.9645 7.41668 45.454C9.28323 48.9842 11.2805 51.063 13.5226 51.8096C14.7793 52.2274 17.0626 52.5201 19.4641 50.5237C19.7685 50.8917 20.1746 51.2573 20.7136 51.597C21.3981 52.0278 22.2351 52.3799 23.071 52.5885C26.0835 53.3402 28.9052 53.1522 31.3126 52.0986C31.3274 52.526 31.3389 52.9342 31.3484 53.2869C31.3644 53.8587 31.3803 54.4195 31.4013 54.9439C31.5439 58.4897 31.7856 61.2467 32.5018 63.1758C32.5411 63.2818 32.5939 63.4435 32.6497 63.6151C33.007 64.7069 33.6044 66.5346 35.1243 67.966C36.6981 69.4489 38.6018 69.9036 40.3454 69.9036C41.2198 69.9036 42.0542 69.789 42.786 69.6326C45.3944 69.0745 48.3569 68.2245 50.5 65.1788C52.5262 62.2995 53.5111 57.9629 53.6893 51.1298C53.7124 50.9365 53.7337 50.752 53.7542 50.5762L53.7967 50.2151L54.274 50.257L54.397 50.2652C57.0537 50.3861 60.3023 49.8238 62.2974 48.8988C63.8739 48.1686 68.9258 45.5065 67.7364 41.9125Z" fill="black"/>
<path d="M63.1939 42.6115C55.2942 44.2381 54.751 41.5685 54.751 41.5685C63.0916 29.2156 66.5785 13.5353 63.5698 9.69758C55.3609 -0.770882 41.1513 4.18006 40.9141 4.30838L40.8378 4.32217C39.277 3.99872 37.5305 3.80624 35.5673 3.77416C31.9931 3.71583 29.2816 4.70952 27.224 6.26686C27.224 6.26686 1.87543 -4.15626 3.05454 19.3757C3.30529 24.3818 10.2434 57.2549 18.5187 47.3257C21.5434 43.6948 24.466 40.6249 24.466 40.6249C25.9174 41.5873 27.6551 42.0784 29.4768 41.9021L29.6184 41.7822C29.5743 42.2329 29.5945 42.6738 29.675 43.1959C27.543 45.5732 28.1697 45.9905 23.908 46.8663C19.5955 47.7534 22.1288 49.3324 23.7829 49.7455C25.7881 50.2458 30.4269 50.9547 33.5613 46.5751L33.4365 47.0749C34.2716 47.7428 34.8581 51.4184 34.7598 54.7508C34.6615 58.0829 34.5959 60.3707 35.2539 62.1576C35.9124 63.9445 36.5682 67.9652 42.1707 66.7671C46.8519 65.7657 49.2778 63.1709 49.6154 58.8425C49.8547 55.7654 50.3969 56.2204 50.4309 53.4692L50.8657 52.1669C51.367 47.9957 50.9454 46.6499 53.8293 47.2759L54.5305 47.3374C56.6529 47.4336 59.4313 46.9964 61.062 46.24C64.573 44.6138 66.6555 41.8981 63.1934 42.6115H63.1939Z" fill="#336791"/>
<path d="M28.7077 21.6144C27.9958 21.5155 27.3512 21.6069 27.025 21.8535C26.8417 21.9922 26.7849 22.1528 26.7695 22.2634C26.7285 22.5563 26.9341 22.8803 27.0606 23.0474C27.4181 23.5203 27.9403 23.8454 28.4572 23.917C28.5321 23.9276 28.6068 23.9324 28.6809 23.9324C29.5428 23.9324 30.3267 23.2624 30.3958 22.7679C30.4821 22.1486 29.5814 21.7358 28.7077 21.6146V21.6144ZM52.291 21.634C52.223 21.1485 51.3576 21.0101 50.5363 21.1241C49.716 21.2381 48.9207 21.6077 48.9871 22.0942C49.0403 22.4726 49.7248 23.1184 50.5349 23.1184C50.6035 23.1184 50.6725 23.1139 50.7421 23.1041C51.2829 23.0293 51.6798 22.6865 51.8684 22.489C52.1552 22.1878 52.3215 21.8522 52.291 21.634Z" fill="white"/>
<path d="M65.8224 42.4267C65.5212 41.5176 64.5517 41.2251 62.9409 41.5571C58.1583 42.5423 56.4456 41.8598 55.8833 41.4465C59.6007 35.794 62.6588 28.9612 64.3086 22.5863C65.0901 19.5665 65.5217 16.762 65.557 14.4761C65.5961 11.9673 65.1679 10.1236 64.285 8.99732C60.7251 4.45706 55.5002 2.02162 49.1757 1.95481C44.8277 1.90602 41.1541 3.01663 40.4419 3.32895C38.9422 2.95671 37.3073 2.72818 35.5273 2.69901C32.2633 2.64625 29.4419 3.42625 27.106 5.0162C26.0913 4.6392 23.469 3.74069 20.2621 3.22502C14.718 2.3342 10.3123 3.00921 7.16841 5.23228C3.41698 7.88512 1.68511 12.6271 2.02059 19.3263C2.13348 21.5802 3.42017 28.5137 5.45061 35.1538C8.12333 43.8934 11.0287 48.8409 14.0856 49.8587C14.4433 49.9777 14.8559 50.061 15.3109 50.061C16.426 50.061 17.7931 49.5593 19.2156 47.8525C20.9505 45.7751 22.7452 43.7482 24.5974 41.7742C25.7991 42.4179 27.1192 42.7774 28.4694 42.8135C28.4721 42.8488 28.4755 42.884 28.4787 42.919C28.2463 43.1956 28.0187 43.4763 27.7961 43.7608C26.8605 44.9462 26.6658 45.193 23.6544 45.8118C22.7978 45.9884 20.5227 46.4563 20.4892 48.0481C20.4531 49.7873 23.1787 50.5178 23.4892 50.5952C24.5714 50.8656 25.6139 50.999 26.6082 50.999C29.0262 50.999 31.1541 50.2057 32.8546 48.6709C32.8023 54.8711 33.0613 60.9807 33.8072 62.8421C34.4181 64.366 35.9104 68.0903 40.6242 68.09C41.3158 68.09 42.0771 68.0097 42.9146 67.8304C47.8343 66.7779 49.9707 64.6076 50.7971 59.8229C51.2393 57.2657 51.9982 51.1596 52.3552 47.8843C53.1085 48.1189 54.0783 48.2263 55.1268 48.226C57.3134 48.226 59.8366 47.7623 61.4189 47.0293C63.1964 46.2052 66.4041 44.1834 65.8224 42.4267ZM54.1068 20.294C54.0905 21.2609 53.9572 22.1388 53.8159 23.055C53.6637 24.0405 53.5064 25.0594 53.4669 26.2962C53.4278 27.4999 53.5784 28.7513 53.724 29.9616C54.0183 32.406 54.3203 34.9226 53.1513 37.4057C52.9571 37.0623 52.7841 36.7074 52.6333 36.3429C52.488 35.9913 52.1725 35.4266 51.7355 34.645C50.0358 31.6024 46.0554 24.4774 48.093 21.5701C48.7 20.7047 50.2403 19.815 54.1068 20.294ZM49.4201 3.91275C55.0869 4.03763 59.5696 6.15359 62.7433 10.2015C65.1775 13.3064 62.4971 27.4341 54.7373 39.6222C54.6593 39.5231 54.5809 39.4244 54.502 39.326L54.4037 39.2036C56.4089 35.8982 56.0169 32.6279 55.6678 29.7285C55.5244 28.5386 55.3889 27.4148 55.4235 26.359C55.459 25.2402 55.6073 24.2805 55.7507 23.3525C55.9268 22.209 56.1061 21.0258 56.0567 19.631C56.0936 19.4846 56.1085 19.3117 56.0891 19.1065C55.9629 17.769 54.4329 13.7659 51.3145 10.1427C49.6087 8.16085 47.1211 5.94308 43.7245 4.44725C45.1855 4.145 47.1832 3.86318 49.4201 3.91275ZM17.7103 46.6032C16.1431 48.484 15.0609 48.1234 14.705 48.0052C12.3861 47.2331 9.6953 42.341 7.323 34.5835C5.27025 27.871 4.07069 21.1212 3.97559 19.2285C3.67597 13.2425 5.12973 9.07076 8.29678 6.82887C13.451 3.18074 21.9249 5.36431 25.33 6.47174C25.2811 6.51999 25.2301 6.56507 25.1818 6.61411C19.5941 12.2464 19.7266 21.8694 19.7404 22.4577C19.7399 22.6847 19.759 23.006 19.7851 23.448C19.8812 25.0666 20.0603 28.0789 19.5821 31.4903C19.138 34.6604 20.1171 37.7631 22.2679 40.0032C22.4886 40.2326 22.7206 40.451 22.963 40.6575C22.0057 41.6809 19.9251 43.944 17.7103 46.6032ZM23.6813 38.6513C21.9478 36.8458 21.1605 34.3345 21.5209 31.7607C22.0256 28.1571 21.8394 25.0186 21.7393 23.3324C21.7252 23.0964 21.7127 22.8896 21.7055 22.7266C22.5218 22.0041 26.3046 19.9812 29.0023 20.5981C30.2332 20.8794 30.9833 21.7162 31.2951 23.1553C32.9091 30.6061 31.5087 33.7115 30.3835 36.2071C30.1516 36.7212 29.9325 37.2072 29.7455 37.7098L29.6004 38.0985C29.2334 39.0811 28.8918 39.9947 28.6801 40.8622C26.8371 40.8569 25.0444 40.071 23.6813 38.651V38.6513ZM23.9641 48.6995C23.426 48.5654 22.942 48.3323 22.6581 48.1391C22.8953 48.0277 23.3174 47.8761 24.0494 47.7255C27.5921 46.9977 28.1392 46.4839 29.334 44.9698C29.6079 44.6224 29.9184 44.229 30.3484 43.7497L30.349 43.7491C30.9894 43.0333 31.2824 43.1547 31.8136 43.3748C32.2442 43.5524 32.6636 44.0911 32.8336 44.684C32.9141 44.9639 33.0044 45.4952 32.7088 45.9088C30.213 49.3968 26.576 49.352 23.9641 48.6995ZM42.5045 65.9199C38.1706 66.8468 36.6361 64.6397 35.6248 62.1165C34.9722 60.4875 34.6513 53.142 34.8789 45.0299C34.8819 44.922 34.8665 44.8178 34.8367 44.7197C34.8101 44.526 34.7696 44.3345 34.7156 44.1465C34.3772 42.9662 33.5524 41.9789 32.563 41.5695C32.1698 41.407 31.4484 41.1087 30.5814 41.3301C30.7663 40.5697 31.0869 39.711 31.4346 38.7812L31.5804 38.3902C31.7446 37.9492 31.9507 37.4924 32.1685 37.0088C33.346 34.3979 34.9586 30.8216 33.2084 22.7425C32.5529 19.7163 30.3636 18.2385 27.0449 18.5819C25.0553 18.7873 23.235 19.5885 22.3271 20.048C22.1319 20.1466 21.9534 20.2421 21.7866 20.3349C22.04 17.2859 22.9973 11.5879 26.5784 7.98269C28.8333 5.71322 31.8362 4.59227 35.4949 4.65272C42.704 4.77043 47.3269 8.4631 49.9359 11.5404C52.1842 14.1919 53.4015 16.8631 53.8873 18.3037C50.2337 17.9328 47.7487 18.6526 46.4892 20.4502C43.7487 24.3603 47.9883 31.9492 50.026 35.5965C50.3997 36.2649 50.7222 36.8426 50.8236 37.0881C51.4872 38.6932 52.3462 39.7648 52.9733 40.5469C53.1656 40.7866 53.3521 41.0191 53.494 41.2222C52.3874 41.5406 50.3997 42.2764 50.5808 45.9539C50.4347 47.7992 49.3959 56.4385 48.8681 59.4909C48.1714 63.5235 46.6847 65.0254 42.5045 65.9202V65.9199ZM60.5946 45.2572C59.4631 45.7813 57.5694 46.1745 55.7706 46.2591C53.7838 46.3519 52.7723 46.0369 52.5343 45.8431C52.4227 43.5513 53.2772 43.3119 54.1817 43.0585C54.3238 43.0187 54.4624 42.9797 54.5963 42.9331C54.6794 43.0007 54.7705 43.0678 54.8704 43.1335C56.4674 44.1855 59.3157 44.299 63.337 43.4705L63.3811 43.4617C62.8386 43.9679 61.9106 44.6471 60.5946 45.2572Z" fill="white"/>
</svg>
