<svg width="63" height="90" viewBox="0 0 72 72" fill="none" xmlns="http://www.w3.org/2000/svg">
<path d="M35.692 0.0205078C17.4597 0.0205078 18.5981 7.95886 18.5981 7.95886L18.6184 16.1832H36.0171V18.6524H11.7079C11.7079 18.6524 0.0410156 17.3239 0.0410156 35.7941C0.0410156 54.2647 10.2241 53.6097 10.2241 53.6097H16.3014V45.0386C16.3014 45.0386 15.9737 34.8146 26.3219 34.8146H43.5783C43.5783 34.8146 53.2735 34.9718 53.2735 25.4069V9.59171C53.2735 9.59171 54.746 0.0205078 35.692 0.0205078ZM26.0983 5.55124C26.5095 5.55087 26.9167 5.6319 27.2966 5.7897C27.6765 5.94749 28.0217 6.17896 28.3124 6.47085C28.6031 6.76274 28.8337 7.10932 28.9908 7.49077C29.148 7.87221 29.2287 8.28103 29.2284 8.69382C29.2287 9.10662 29.148 9.51544 28.9908 9.89688C28.8337 10.2783 28.6031 10.6249 28.3124 10.9168C28.0217 11.2087 27.6765 11.4402 27.2966 11.598C26.9167 11.7558 26.5095 11.8368 26.0983 11.8364C25.6872 11.8368 25.28 11.7558 24.9001 11.598C24.5202 11.4402 24.175 11.2087 23.8843 10.9168C23.5935 10.6249 23.363 10.2783 23.2058 9.89688C23.0487 9.51544 22.9679 9.10662 22.9683 8.69382C22.9679 8.28103 23.0487 7.87221 23.2058 7.49077C23.363 7.10932 23.5935 6.76274 23.8843 6.47085C24.175 6.17896 24.5202 5.94749 24.9001 5.7897C25.28 5.6319 25.6872 5.55087 26.0983 5.55124Z" fill="url(#paint0_linear)"/>
<path d="M36.2095 71.7532C54.4418 71.7532 53.3034 63.8148 53.3034 63.8148L53.2832 55.5907H35.8841V53.1216H60.1934C60.1934 53.1216 71.8602 54.45 71.8602 35.9793C71.8602 17.5089 61.6771 18.164 61.6771 18.164H55.5999V26.7348C55.5999 26.7348 55.9275 36.9588 45.5793 36.9588H28.3229C28.3229 36.9588 18.6277 36.8016 18.6277 46.3668V62.1823C18.6277 62.1823 17.1555 71.7532 36.2092 71.7532H36.2095ZM45.8032 66.223C45.392 66.2234 44.9848 66.1424 44.6049 65.9846C44.225 65.8268 43.8798 65.5953 43.5891 65.3034C43.2984 65.0115 43.0678 64.6649 42.9107 64.2835C42.7535 63.902 42.6728 63.4932 42.6732 63.0804C42.6727 62.6676 42.7534 62.2588 42.9106 61.8773C43.0677 61.4958 43.2983 61.1492 43.589 60.8573C43.8797 60.5653 44.2249 60.3339 44.6049 60.176C44.9848 60.0182 45.392 59.9372 45.8032 59.9376C46.2143 59.9372 46.6215 60.0182 47.0014 60.176C47.3813 60.3338 47.7265 60.5653 48.0173 60.8572C48.308 61.1491 48.5385 61.4956 48.6957 61.8771C48.8529 62.2585 48.9336 62.6673 48.9332 63.0801C48.9336 63.4929 48.8529 63.9018 48.6957 64.2832C48.5385 64.6646 48.308 65.0112 48.0173 65.3031C47.7265 65.595 47.3813 65.8265 47.0014 65.9843C46.6215 66.1421 46.2143 66.2231 45.8032 66.2227V66.223Z" fill="url(#paint1_linear)"/>
<defs>
<linearGradient id="paint0_linear" x1="6.94284" y1="6.47245" x2="42.6756" y2="41.7072" gradientUnits="userSpaceOnUse">
<stop stop-color="#387EB8"/>
<stop offset="1" stop-color="#366994"/>
</linearGradient>
<linearGradient id="paint1_linear" x1="28.7887" y1="29.1898" x2="67.1544" y2="65.3132" gradientUnits="userSpaceOnUse">
<stop stop-color="#FFE052"/>
<stop offset="1" stop-color="#FFC331"/>
</linearGradient>
</defs>
</svg>
