<svg width="63" height="90" viewBox="0 0 71 71" fill="none" xmlns="http://www.w3.org/2000/svg">
<path d="M35.5 70.9445C55.1061 70.9445 71 55.1142 71 35.5865C71 16.0588 55.1061 0.228516 35.5 0.228516C15.8939 0.228516 0 16.0588 0 35.5865C0 55.1142 15.8939 70.9445 35.5 70.9445Z" fill="#1A171B"/>
<path d="M50.9496 13.2936C47.3481 13.4187 44.2047 15.3957 41.8647 18.1304C39.2738 21.129 37.5501 24.6855 36.3081 28.3157C34.0866 26.5023 32.3726 24.1545 28.8085 23.1308C26.0536 22.343 23.1601 22.6684 20.4992 24.6429C19.2387 25.5807 18.3704 26.9984 17.9574 28.3309C16.8882 31.7941 19.0815 34.876 20.0777 35.9826L22.2557 38.3074C22.7047 38.7632 23.786 39.9524 23.2574 41.6573C22.6861 43.5108 20.4424 44.7111 18.141 44.0039C17.1132 43.6918 15.6366 42.9291 15.9672 41.8551C16.1039 41.4159 16.4195 41.0872 16.5887 40.7073C16.744 40.3811 16.8181 40.1364 16.8652 39.9927C17.2857 38.6254 16.7113 36.8464 15.2408 36.3948C13.8691 35.976 12.4654 36.3078 11.9213 38.0671C11.3042 40.0656 12.2644 43.6929 17.408 45.2724C23.4344 47.1165 28.5322 43.8484 29.2553 39.5858C29.7107 36.916 28.5003 34.9327 26.283 32.3816L24.4764 30.3916C23.382 29.3027 23.0062 27.4467 24.1388 26.0202C25.0946 24.817 26.4558 24.3034 28.685 24.9073C31.9391 25.7874 33.3896 28.0362 35.81 29.8499C34.8107 33.1148 34.1576 36.3917 33.5663 39.3303L33.206 41.5211C31.476 50.5598 30.1552 55.5229 26.7231 58.3722C26.0317 58.862 25.0432 59.5951 23.5534 59.6462C22.7724 59.6703 22.52 59.1352 22.5092 58.9021C22.4906 58.3559 22.9526 58.1057 23.2596 57.8598C23.7184 57.6107 24.412 57.1974 24.3649 55.8734C24.3149 54.3088 23.0136 52.9523 21.1327 53.0144C19.7238 53.0622 17.5763 54.3829 17.657 56.8002C17.7411 59.2971 20.0777 61.1683 23.6005 61.0498C25.4837 60.9854 29.6888 60.2219 33.8331 55.3152C38.6567 49.6905 40.0057 43.2423 41.0205 38.5229L42.1531 32.2921C42.7824 32.3673 43.4553 32.4173 44.1872 32.4347C50.1947 32.5609 53.1997 29.4616 53.2444 27.2072C53.2741 25.8429 52.3455 24.5004 51.0456 24.5308C50.1151 24.557 48.9461 25.1739 48.6654 26.4556C48.3914 27.713 50.5772 28.8478 48.8687 29.9499C47.6551 30.7322 45.4793 31.2836 42.4152 30.8356L42.9724 27.7685C44.1095 21.9524 45.512 14.7982 50.8326 14.6242C51.2203 14.6046 52.6392 14.6416 52.6722 15.5761C52.6819 15.8882 52.6043 15.9678 52.2374 16.6824C51.8638 17.2396 51.7229 17.7139 51.7404 18.2589C51.7917 19.7439 52.9254 20.7199 54.5651 20.661C56.7606 20.5903 57.3921 18.4614 57.356 17.368C57.2673 14.799 54.5487 13.1762 50.9494 13.2936H50.9496Z" fill="white"/>
</svg>
